<svg xmlns="http://www.w3.org/2000/svg" data-name="Layer 1" viewBox="0 0 100 125" x="0px" y="0px"><title>13</title><path d="M30.81549,94.99976A25.74424,25.74424,0,0,0,49.07837,87.4469L61.02112,75.50464A25.8257,25.8257,0,0,0,54.63129,34.305L51.709,37.22742a7.64122,7.64122,0,0,0-2.2323,4.59124,16.81743,16.81743,0,0,1,5.17939,27.32L42.71332,81.08185A16.82573,16.82573,0,0,1,18.91766,57.28717l4.87049-4.87067a35.06428,35.06428,0,0,1-1.31531-11.41607l-9.92023,9.92071A25.81575,25.81575,0,0,0,30.81549,94.99976Z"/><path d="M50.92163,12.55219,38.97791,24.49536a25.84794,25.84794,0,0,0,6.38458,41.20532L48.29,62.77307a7.77769,7.77769,0,0,0,2.22479-4.59576A16.82269,16.82269,0,0,1,45.343,30.86139L57.28668,18.91815A16.82573,16.82573,0,1,1,81.08234,42.71283L76.211,47.58392a35.05965,35.05965,0,0,1,1.31518,11.41529l9.92121-9.92084A25.82776,25.82776,0,0,0,50.92163,12.55219Z"/><text x="0" y="115" fill="#000000" font-size="5px" font-weight="bold" font-family="'Helvetica Neue', Helvetica, Arial-Unicode, Arial, Sans-serif">Created by Markus</text><text x="0" y="120" fill="#000000" font-size="5px" font-weight="bold" font-family="'Helvetica Neue', Helvetica, Arial-Unicode, Arial, Sans-serif">from the Noun Project</text></svg>